<svg xmlns="http://www.w3.org/2000/svg" viewBox="0 0 960 1200" width="960" height="1200" role="img" aria-label="Portrait placeholder">
  <defs>
    <linearGradient id="pg" x1="0" y1="0" x2="0.6" y2="1">
      <stop offset="0%" stop-color="#141223"/>
      <stop offset="100%" stop-color="#0b1418"/>
    </linearGradient>
    <radialGradient id="ph" cx="70%" cy="18%" r="60%">
      <stop offset="0%" stop-color="#8b5cf6" stop-opacity="0.4"/>
      <stop offset="100%" stop-color="#8b5cf6" stop-opacity="0"/>
    </radialGradient>
    <radialGradient id="ph2" cx="15%" cy="85%" r="55%">
      <stop offset="0%" stop-color="#22d3ee" stop-opacity="0.3"/>
      <stop offset="100%" stop-color="#22d3ee" stop-opacity="0"/>
    </radialGradient>
  </defs>
  <rect width="960" height="1200" fill="url(#pg)"/>
  <rect width="960" height="1200" fill="url(#ph)"/>
  <rect width="960" height="1200" fill="url(#ph2)"/>
  <circle cx="480" cy="408.00000000000006" r="192" fill="#ffffff" opacity="0.05"/>
  <path d="M192 864 Q480 600 768 864" fill="none" stroke="#ffffff" stroke-opacity="0.1" stroke-width="2"/>
  <rect x="70" y="1020" width="26" height="20" rx="13" fill="#ffffff" opacity="0.05"/><rect x="130" y="983" width="26" height="57" rx="13" fill="#ffffff" opacity="0.07"/><rect x="190" y="946" width="26" height="94" rx="13" fill="#ffffff" opacity="0.09"/><rect x="250" y="909" width="26" height="131" rx="13" fill="#ffffff" opacity="0.11"/><rect x="310" y="872" width="26" height="168" rx="13" fill="#ffffff" opacity="0.05"/><rect x="370" y="1015" width="26" height="25" rx="13" fill="#ffffff" opacity="0.07"/><rect x="430" y="978" width="26" height="62" rx="13" fill="#ffffff" opacity="0.09"/><rect x="490" y="941" width="26" height="99" rx="13" fill="#ffffff" opacity="0.11"/><rect x="550" y="904" width="26" height="136" rx="13" fill="#ffffff" opacity="0.05"/><rect x="610" y="867" width="26" height="173" rx="13" fill="#ffffff" opacity="0.07"/><rect x="670" y="1010" width="26" height="30" rx="13" fill="#ffffff" opacity="0.09"/><rect x="730" y="973" width="26" height="67" rx="13" fill="#ffffff" opacity="0.11"/><rect x="790" y="936" width="26" height="104" rx="13" fill="#ffffff" opacity="0.05"/><rect x="850" y="899" width="26" height="141" rx="13" fill="#ffffff" opacity="0.07"/>
</svg>